<?xml version="1.0" encoding="UTF-8" standalone="no"?>
<svg
   id="Livello_2"
   viewBox="0 0 360 360"
   version="1.1"
   width="360"
   height="360"
   xmlns="http://www.w3.org/2000/svg"
   xmlns:svg="http://www.w3.org/2000/svg">
  <defs
     id="defs1">
    <style
       id="style1">.cls-1{fill:#3c3c3b;stroke-width:0px;}</style>
  </defs>
  <g
     id="Livello_1-2"
     transform="translate(51.99396,18.219215)">
    <path
       class="cls-1"
       d="m 256,209.91 c -2.79,16.74 -5.01,43.86 -12.14,69.62 -11.8,42.56 -28.74,49.56 -71.46,35.04 -6.66,-2.26 -16.4,-5.22 -21.01,-2.2 C 106.41,341.86 68.06,304.42 27.32,298.67 -5.72,294.01 -5.33,259.05 10.29,237.05 44.44,188.96 49.11,134.47 55.21,79.36 59.51,40.33 76.95,10.19 118.39,2.07 c 43.59,-8.54 77.32,9.71 98.28,47 26.07,46.37 38.3,97.32 39.33,160.84 z M 184.55,75.86 c -1.35,-8.08 -5.63,-14.07 -14.12,-14.16 -9.2,-0.1 -12.89,6.37 -11.48,14.71 1.4,8.28 7.59,12.5 15.81,11.78 6.79,-0.6 9.65,-5.69 9.79,-12.32 z m -64.48,6.8 c -0.47,-7.74 -2,-15.17 -12.16,-13.43 -7.62,1.31 -13.16,6.5 -13.98,14.52 -0.89,8.73 3.84,14.02 12.68,13.33 8.17,-0.64 12.69,-6.08 13.46,-14.42 z"
       id="path1"
       style="fill:#424242;fill-opacity:1" />
  </g>
</svg>
